<svg xmlns="http://www.w3.org/2000/svg" xmlns:xlink="http://www.w3.org/1999/xlink" width="1080" zoomAndPan="magnify" viewBox="0 0 810 809.999993" height="1080" preserveAspectRatio="xMidYMid meet" version="1.0"><defs><clipPath id="32984472a4"><path d="M 96.617188 96.617188 L 713.382812 96.617188 L 713.382812 713.382812 L 96.617188 713.382812 Z M 96.617188 96.617188 " clip-rule="nonzero"/></clipPath><clipPath id="e2285b81ef"><path d="M 405 96.617188 C 234.683594 96.617188 96.617188 234.683594 96.617188 405 C 96.617188 575.316406 234.683594 713.382812 405 713.382812 C 575.316406 713.382812 713.382812 575.316406 713.382812 405 C 713.382812 234.683594 575.316406 96.617188 405 96.617188 Z M 405 96.617188 " clip-rule="nonzero"/></clipPath><clipPath id="3568f32806"><path d="M 300 231 L 614.558594 231 L 614.558594 468 L 300 468 Z M 300 231 " clip-rule="nonzero"/></clipPath><clipPath id="4f489e00ee"><path d="M 195.308594 197.667969 L 610 197.667969 L 610 612.417969 L 195.308594 612.417969 Z M 195.308594 197.667969 " clip-rule="nonzero"/></clipPath></defs><g clip-path="url(#32984472a4)"><g clip-path="url(#e2285b81ef)"><path fill="#ffffff" d="M 96.617188 96.617188 L 713.382812 96.617188 L 713.382812 713.382812 L 96.617188 713.382812 Z M 96.617188 96.617188 " fill-opacity="1" fill-rule="nonzero"/></g></g><g clip-path="url(#3568f32806)"><path fill="#092c66" d="M 402.933594 467.035156 C 396.691406 467.035156 390.445312 464.65625 385.683594 459.882812 L 301.875 376.078125 C 299.964844 374.167969 299.964844 371.074219 301.875 369.160156 L 329.464844 341.566406 C 331.375 339.660156 334.46875 339.660156 336.382812 341.566406 L 402.933594 408.117188 L 578.257812 232.792969 C 580.164062 230.886719 583.261719 230.886719 585.175781 232.792969 L 612.765625 260.382812 C 614.675781 262.292969 614.675781 265.386719 612.765625 267.300781 L 420.191406 459.882812 C 415.425781 464.648438 409.183594 467.035156 402.933594 467.035156 Z M 402.933594 467.035156 " fill-opacity="1" fill-rule="nonzero"/></g><g clip-path="url(#4f489e00ee)"><path fill="#092c66" d="M 553.324219 346.632812 C 560.359375 364.75 564.230469 384.425781 564.230469 404.996094 C 564.230469 494.160156 491.6875 566.703125 402.523438 566.703125 C 313.359375 566.703125 240.820312 494.160156 240.820312 404.996094 C 240.820312 315.832031 313.359375 243.289062 402.523438 243.289062 C 442.957031 243.289062 479.972656 258.210938 508.355469 282.824219 L 540.632812 250.542969 C 502.601562 216.449219 453.996094 197.792969 402.523438 197.792969 C 347.179688 197.792969 295.148438 219.347656 256.011719 258.484375 C 216.875 297.621094 195.324219 349.652344 195.324219 404.996094 C 195.324219 460.339844 216.875 512.375 256.011719 551.507812 C 295.140625 590.644531 347.179688 612.199219 402.523438 612.199219 C 457.871094 612.199219 509.902344 590.644531 549.039062 551.507812 C 588.175781 512.375 609.726562 460.339844 609.726562 404.996094 C 609.726562 372.207031 602.160156 340.578125 587.855469 312.109375 Z M 553.324219 346.632812 " fill-opacity="1" fill-rule="nonzero"/></g><path fill="#092c66" d="M 280.929688 417.816406 L 264.386719 417.816406 C 260.960938 417.816406 258.183594 415.035156 258.183594 411.613281 C 258.183594 408.1875 260.964844 405.410156 264.386719 405.410156 L 280.929688 405.410156 C 284.359375 405.410156 287.132812 408.191406 287.132812 411.613281 C 287.132812 415.042969 284.359375 417.816406 280.929688 417.816406 Z M 280.929688 417.816406 " fill-opacity="1" fill-rule="nonzero"/><path fill="#092c66" d="M 408.726562 547.261719 C 405.296875 547.261719 402.523438 544.488281 402.523438 541.0625 L 402.523438 524.519531 C 402.523438 521.089844 405.296875 518.316406 408.726562 518.316406 C 412.15625 518.316406 414.929688 521.089844 414.929688 524.519531 L 414.929688 541.0625 C 414.929688 544.488281 412.15625 547.261719 408.726562 547.261719 Z M 408.726562 547.261719 " fill-opacity="1" fill-rule="nonzero"/><path fill="#092c66" d="M 408.726562 288.371094 C 405.296875 288.371094 402.523438 285.589844 402.523438 282.167969 L 402.523438 265.625 C 402.523438 262.199219 405.296875 259.421875 408.726562 259.421875 C 412.15625 259.421875 414.929688 262.203125 414.929688 265.625 L 414.929688 282.167969 C 414.929688 285.589844 412.15625 288.371094 408.726562 288.371094 Z M 408.726562 288.371094 " fill-opacity="1" fill-rule="nonzero"/><path fill="#092c66" d="M 541.070312 418.234375 L 524.527344 418.234375 C 521.101562 418.234375 518.324219 415.453125 518.324219 412.03125 C 518.324219 408.609375 521.101562 405.828125 524.527344 405.828125 L 541.070312 405.828125 C 544.5 405.828125 547.273438 408.609375 547.273438 412.03125 C 547.273438 415.453125 544.5 418.234375 541.070312 418.234375 Z M 541.070312 418.234375 " fill-opacity="1" fill-rule="nonzero"/></svg>